# xmcd CD database file
#
# Track frame offsets:
#	150
#	19697
#	42645
#
# Disc length: 827 seconds
#
# Revision: 0
# Processed by: cddbd v1.5PL3 Copyright (c) Steve Scherf et al.
# Submitted via: CDex 1.51
#
DISCID=1f033903
DTITLE=Dear - WORLD WIDE LOVE -愛こそすべて-
DYEAR=1998
DGENRE=JPop
TTITLE0=WORLD WIDE LOVE -愛こそすべて-
TTITLE1=CHAOS
TTITLE2=WORLD WIDE LOVE -愛こそすべて-  instrumental
EXTD=YEAR: 1998
EXTT0=
EXTT1=
EXTT2=
PLAYORDER=
